<svg width="118" height="15" viewBox="0 0 118 15" fill="none" xmlns="http://www.w3.org/2000/svg">
<path d="M2.69141 14H0.168945V1.39648H2.69141V7.69824L7.38477 1.39648H10.25L6.26855 6.71387L10.25 14H7.38477L4.61621 8.90234L2.69141 11.4775V14ZM14.082 2.0293C14.082 2.25195 14.0381 2.45996 13.9502 2.65332C13.8682 2.84668 13.7539 3.0166 13.6074 3.16309C13.4609 3.30371 13.2881 3.41797 13.0889 3.50586C12.8955 3.58789 12.6875 3.62891 12.4648 3.62891C12.2422 3.62891 12.0312 3.58789 11.832 3.50586C11.6387 3.41797 11.4688 3.30371 11.3223 3.16309C11.1816 3.0166 11.0674 2.84668 10.9795 2.65332C10.8975 2.45996 10.8564 2.25195 10.8564 2.0293C10.8564 1.8125 10.8975 1.60742 10.9795 1.41406C11.0674 1.21484 11.1816 1.04492 11.3223 0.904297C11.4688 0.757812 11.6387 0.643555 11.832 0.561523C12.0312 0.473633 12.2422 0.429688 12.4648 0.429688C12.6875 0.429688 12.8955 0.473633 13.0889 0.561523C13.2881 0.643555 13.4609 0.757812 13.6074 0.904297C13.7539 1.04492 13.8682 1.21484 13.9502 1.41406C14.0381 1.60742 14.082 1.8125 14.082 2.0293ZM13.6689 14H11.252V4.58691H13.6689V14ZM22.8535 14H15.0049L18.9688 6.99512H15.0049V4.60449H22.8535L18.8896 11.6094H22.8535V14ZM26.9668 14H24.4443V1.39648H26.9668V7.69824L31.6602 1.39648H34.5254L30.5439 6.71387L34.5254 14H31.6602L28.8916 8.90234L26.9668 11.4775V14ZM43.9385 9.20996C43.9385 9.91309 43.8125 10.5693 43.5605 11.1787C43.3086 11.7822 42.9658 12.3066 42.5322 12.752C42.0986 13.1914 41.5889 13.54 41.0029 13.7979C40.4229 14.0498 39.7988 14.1758 39.1309 14.1758C38.4688 14.1758 37.8447 14.0498 37.2588 13.7979C36.6787 13.54 36.1689 13.1914 35.7295 12.752C35.2959 12.3066 34.9531 11.7822 34.7012 11.1787C34.4492 10.5693 34.3232 9.91309 34.3232 9.20996C34.3232 8.49512 34.4492 7.83301 34.7012 7.22363C34.9531 6.61426 35.2959 6.08984 35.7295 5.65039C36.1689 5.20508 36.6787 4.85645 37.2588 4.60449C37.8447 4.35254 38.4688 4.22656 39.1309 4.22656C39.7988 4.22656 40.4229 4.34668 41.0029 4.58691C41.5889 4.82129 42.0986 5.1582 42.5322 5.59766C42.9658 6.03125 43.3086 6.55566 43.5605 7.1709C43.8125 7.78027 43.9385 8.45996 43.9385 9.20996ZM41.5215 9.20996C41.5215 8.82324 41.457 8.47461 41.3281 8.16406C41.2051 7.84766 41.0352 7.57812 40.8184 7.35547C40.6016 7.12695 40.3467 6.9541 40.0537 6.83691C39.7666 6.71387 39.459 6.65234 39.1309 6.65234C38.8027 6.65234 38.4922 6.71387 38.1992 6.83691C37.9121 6.9541 37.6602 7.12695 37.4434 7.35547C37.2324 7.57812 37.0654 7.84766 36.9424 8.16406C36.8193 8.47461 36.7578 8.82324 36.7578 9.20996C36.7578 9.57324 36.8193 9.91016 36.9424 10.2207C37.0654 10.5312 37.2324 10.8008 37.4434 11.0293C37.6602 11.2578 37.9121 11.4395 38.1992 11.5742C38.4922 11.7031 38.8027 11.7676 39.1309 11.7676C39.459 11.7676 39.7666 11.7061 40.0537 11.583C40.3467 11.46 40.6016 11.2871 40.8184 11.0645C41.0352 10.8418 41.2051 10.5723 41.3281 10.2559C41.457 9.93945 41.5215 9.59082 41.5215 9.20996ZM52.5078 14H44.6592L48.623 6.99512H44.6592V4.60449H52.5078L48.5439 11.6094H52.5078V14ZM69.207 12.708C68.6211 13.2119 67.9648 13.5986 67.2383 13.8682C66.5117 14.1377 65.7588 14.2725 64.9795 14.2725C64.3818 14.2725 63.8047 14.1934 63.248 14.0352C62.6973 13.8828 62.1787 13.666 61.6924 13.3848C61.2119 13.0977 60.7725 12.7549 60.374 12.3564C59.9756 11.958 59.6328 11.5186 59.3457 11.0381C59.0645 10.5518 58.8447 10.0332 58.6865 9.48242C58.5342 8.92578 58.458 8.34863 58.458 7.75098C58.458 7.15332 58.5342 6.57617 58.6865 6.01953C58.8447 5.46289 59.0645 4.94434 59.3457 4.46387C59.6328 3.97754 59.9756 3.53516 60.374 3.13672C60.7725 2.73828 61.2119 2.39844 61.6924 2.11719C62.1787 1.83008 62.6973 1.61035 63.248 1.45801C63.8047 1.2998 64.3818 1.2207 64.9795 1.2207C65.7588 1.2207 66.5117 1.35547 67.2383 1.625C67.9648 1.88867 68.6211 2.27539 69.207 2.78516L67.8711 4.98242C67.502 4.58398 67.0654 4.2793 66.5615 4.06836C66.0576 3.85156 65.5303 3.74316 64.9795 3.74316C64.4229 3.74316 63.9014 3.84863 63.415 4.05957C62.9287 4.27051 62.5039 4.55762 62.1406 4.9209C61.7773 5.27832 61.4902 5.70312 61.2793 6.19531C61.0684 6.68164 60.9629 7.2002 60.9629 7.75098C60.9629 8.30176 61.0684 8.82031 61.2793 9.30664C61.4902 9.78711 61.7773 10.209 62.1406 10.5723C62.5039 10.9355 62.9287 11.2227 63.415 11.4336C63.9014 11.6445 64.4229 11.75 64.9795 11.75C65.5303 11.75 66.0576 11.6445 66.5615 11.4336C67.0654 11.2168 67.502 10.9092 67.8711 10.5107L69.207 12.708ZM73.25 2.0293C73.25 2.25195 73.2061 2.45996 73.1182 2.65332C73.0361 2.84668 72.9219 3.0166 72.7754 3.16309C72.6289 3.30371 72.4561 3.41797 72.2568 3.50586C72.0635 3.58789 71.8555 3.62891 71.6328 3.62891C71.4102 3.62891 71.1992 3.58789 71 3.50586C70.8066 3.41797 70.6367 3.30371 70.4902 3.16309C70.3496 3.0166 70.2354 2.84668 70.1475 2.65332C70.0654 2.45996 70.0244 2.25195 70.0244 2.0293C70.0244 1.8125 70.0654 1.60742 70.1475 1.41406C70.2354 1.21484 70.3496 1.04492 70.4902 0.904297C70.6367 0.757812 70.8066 0.643555 71 0.561523C71.1992 0.473633 71.4102 0.429688 71.6328 0.429688C71.8555 0.429688 72.0635 0.473633 72.2568 0.561523C72.4561 0.643555 72.6289 0.757812 72.7754 0.904297C72.9219 1.04492 73.0361 1.21484 73.1182 1.41406C73.2061 1.60742 73.25 1.8125 73.25 2.0293ZM72.8369 14H70.4199V4.58691H72.8369V14ZM77.0732 14H74.6738V4.58691H75.2539L76.0449 5.50098C76.4316 5.14941 76.8682 4.87988 77.3545 4.69238C77.8467 4.49902 78.3594 4.40234 78.8926 4.40234C79.4668 4.40234 80.0088 4.51367 80.5186 4.73633C81.0283 4.95312 81.4736 5.25488 81.8545 5.6416C82.2354 6.02246 82.5342 6.4707 82.751 6.98633C82.9736 7.49609 83.085 8.04102 83.085 8.62109V14H80.6855V8.62109C80.6855 8.375 80.6387 8.14355 80.5449 7.92676C80.4512 7.7041 80.3223 7.51074 80.1582 7.34668C79.9941 7.18262 79.8037 7.05371 79.5869 6.95996C79.3701 6.86621 79.1387 6.81934 78.8926 6.81934C78.6406 6.81934 78.4033 6.86621 78.1807 6.95996C77.958 7.05371 77.7646 7.18262 77.6006 7.34668C77.4365 7.51074 77.3076 7.7041 77.2139 7.92676C77.1201 8.14355 77.0732 8.375 77.0732 8.62109V14ZM88.543 11.6973C88.6367 11.7266 88.7305 11.7471 88.8242 11.7588C88.918 11.7646 89.0117 11.7676 89.1055 11.7676C89.3398 11.7676 89.5654 11.7354 89.7822 11.6709C89.999 11.6064 90.2012 11.5156 90.3887 11.3984C90.582 11.2754 90.752 11.1289 90.8984 10.959C91.0508 10.7832 91.1738 10.5898 91.2676 10.3789L93.0254 12.1455C92.8027 12.4619 92.5449 12.7461 92.252 12.998C91.9648 13.25 91.6514 13.4639 91.3115 13.6396C90.9775 13.8154 90.623 13.9473 90.248 14.0352C89.8789 14.1289 89.498 14.1758 89.1055 14.1758C88.4434 14.1758 87.8193 14.0527 87.2334 13.8066C86.6533 13.5605 86.1436 13.2178 85.7041 12.7783C85.2705 12.3389 84.9277 11.8174 84.6758 11.2139C84.4238 10.6045 84.2979 9.93652 84.2979 9.20996C84.2979 8.46582 84.4238 7.78613 84.6758 7.1709C84.9277 6.55566 85.2705 6.03125 85.7041 5.59766C86.1436 5.16406 86.6533 4.82715 87.2334 4.58691C87.8193 4.34668 88.4434 4.22656 89.1055 4.22656C89.498 4.22656 89.8818 4.27344 90.2568 4.36719C90.6318 4.46094 90.9863 4.5957 91.3203 4.77148C91.6602 4.94727 91.9766 5.16406 92.2695 5.42188C92.5625 5.67383 92.8203 5.95801 93.043 6.27441L88.543 11.6973ZM89.7734 6.74902C89.6621 6.70801 89.5508 6.68164 89.4395 6.66992C89.334 6.6582 89.2227 6.65234 89.1055 6.65234C88.7773 6.65234 88.4668 6.71387 88.1738 6.83691C87.8867 6.9541 87.6348 7.12402 87.418 7.34668C87.207 7.56934 87.04 7.83887 86.917 8.15527C86.7939 8.46582 86.7324 8.81738 86.7324 9.20996C86.7324 9.29785 86.7354 9.39746 86.7412 9.50879C86.7529 9.62012 86.7676 9.73438 86.7852 9.85156C86.8086 9.96289 86.835 10.0713 86.8643 10.1768C86.8936 10.2822 86.9316 10.376 86.9785 10.458L89.7734 6.74902ZM106.227 14H103.836V8.02344C103.836 7.85938 103.804 7.7041 103.739 7.55762C103.681 7.41113 103.596 7.28223 103.484 7.1709C103.373 7.05957 103.244 6.97461 103.098 6.91602C102.951 6.85156 102.796 6.81934 102.632 6.81934C102.468 6.81934 102.312 6.85156 102.166 6.91602C102.025 6.97461 101.899 7.05957 101.788 7.1709C101.683 7.28223 101.598 7.41113 101.533 7.55762C101.475 7.7041 101.445 7.85938 101.445 8.02344V14H99.0459V8.02344C99.0459 7.85938 99.0137 7.7041 98.9492 7.55762C98.8906 7.41113 98.8057 7.28223 98.6943 7.1709C98.583 7.05957 98.4541 6.97461 98.3076 6.91602C98.1611 6.85156 98.0059 6.81934 97.8418 6.81934C97.6777 6.81934 97.5225 6.85156 97.376 6.91602C97.2354 6.97461 97.1094 7.05957 96.998 7.1709C96.8926 7.28223 96.8076 7.41113 96.7432 7.55762C96.6846 7.7041 96.6553 7.85938 96.6553 8.02344V14H94.2559V4.58691H94.8359L95.4863 5.30762C95.8203 5.02637 96.1865 4.80957 96.585 4.65723C96.9893 4.49902 97.4082 4.41992 97.8418 4.41992C98.2812 4.41992 98.709 4.50195 99.125 4.66602C99.5469 4.83008 99.916 5.11426 100.232 5.51855C100.379 5.31934 100.546 5.14941 100.733 5.00879C100.921 4.86816 101.117 4.75391 101.322 4.66602C101.533 4.57812 101.75 4.5166 101.973 4.48145C102.195 4.44043 102.415 4.41992 102.632 4.41992C103.13 4.41992 103.596 4.51367 104.029 4.70117C104.469 4.88867 104.85 5.14648 105.172 5.47461C105.5 5.79688 105.758 6.17773 105.945 6.61719C106.133 7.05664 106.227 7.52539 106.227 8.02344V14ZM117.099 14H116.519L115.587 12.708C115.358 12.9131 115.115 13.1064 114.857 13.2881C114.605 13.4639 114.339 13.6191 114.058 13.7539C113.776 13.8828 113.486 13.9854 113.188 14.0615C112.895 14.1377 112.596 14.1758 112.291 14.1758C111.629 14.1758 111.005 14.0645 110.419 13.8418C109.839 13.6191 109.329 13.2969 108.89 12.875C108.456 12.4473 108.113 11.9258 107.861 11.3105C107.609 10.6953 107.483 9.99512 107.483 9.20996C107.483 8.47754 107.609 7.80664 107.861 7.19727C108.113 6.58203 108.456 6.05469 108.89 5.61523C109.329 5.17578 109.839 4.83594 110.419 4.5957C111.005 4.34961 111.629 4.22656 112.291 4.22656C112.596 4.22656 112.897 4.26465 113.196 4.34082C113.495 4.41699 113.785 4.52246 114.066 4.65723C114.348 4.79199 114.614 4.9502 114.866 5.13184C115.124 5.31348 115.364 5.50977 115.587 5.7207L116.519 4.60449H117.099V14ZM114.682 9.20996C114.682 8.88184 114.617 8.56543 114.488 8.26074C114.365 7.9502 114.195 7.67773 113.979 7.44336C113.762 7.20312 113.507 7.0127 113.214 6.87207C112.927 6.72559 112.619 6.65234 112.291 6.65234C111.963 6.65234 111.652 6.70801 111.359 6.81934C111.072 6.93066 110.82 7.09473 110.604 7.31152C110.393 7.52832 110.226 7.79785 110.103 8.12012C109.979 8.43652 109.918 8.7998 109.918 9.20996C109.918 9.62012 109.979 9.98633 110.103 10.3086C110.226 10.625 110.393 10.8916 110.604 11.1084C110.82 11.3252 111.072 11.4893 111.359 11.6006C111.652 11.7119 111.963 11.7676 112.291 11.7676C112.619 11.7676 112.927 11.6973 113.214 11.5566C113.507 11.4102 113.762 11.2197 113.979 10.9854C114.195 10.7451 114.365 10.4727 114.488 10.168C114.617 9.85742 114.682 9.53809 114.682 9.20996Z" fill="#F2C94C"/>
</svg>
